<svg width="293" height="278" viewBox="0 0 293 278" fill="none" xmlns="http://www.w3.org/2000/svg">
<path d="M148.688 0.335243C148.263 0.440331 146.137 3.17255 143.89 6.32512C141.642 9.47768 139.638 12.0523 139.395 12.0523C139.152 12.0523 136.783 9.58277 134.171 6.53529L129.372 1.0183L122.386 1.33356C118.559 1.54373 115.34 1.7539 115.219 1.80644C115.097 1.91153 115.219 3.69798 115.462 5.79969L115.826 9.68785H117.77H119.653L120.139 17.832C120.382 22.2981 120.746 27.4473 120.928 29.2338L121.293 32.5439H123.905C125.302 32.5439 127.367 32.3863 128.461 32.2287L130.404 31.8609L130.222 26.5541C129.979 19.671 130.647 19.6184 136.297 26.1337L140.488 31.0202L143.95 26.0286C149.357 18.2523 149.842 18.2523 150.207 26.3439L150.45 31.4931L155.127 31.1253C157.678 30.9677 159.804 30.81 159.865 30.7575C159.926 30.7049 159.622 23.9269 159.136 15.7303C158.65 7.48106 158.225 0.597958 158.225 0.335243C158.225 -0.0850983 149.903 -0.137642 148.688 0.335243Z" fill="white"/>
<path d="M171.346 2.4369C171.164 2.96233 170.86 4.32844 170.678 5.48438C170.435 6.64032 170.131 7.95389 170.01 8.42678C169.827 9.05729 170.253 9.37255 171.589 9.58272C173.897 10.0031 173.897 9.89797 171.346 22.2981C170.192 27.7625 169.341 32.3863 169.463 32.4913C169.767 32.7015 178.453 34.1727 178.574 33.9625C178.635 33.91 179.972 27.3422 181.551 19.4082C183.13 11.4743 184.588 4.59116 184.71 4.17081C184.892 3.48776 183.738 3.1725 178.757 2.4369C171.224 1.33351 171.771 1.33351 171.346 2.4369Z" fill="white"/>
<path d="M196.069 8.47945C195.036 10.8439 194.611 12.3151 195.036 12.4202C195.4 12.5252 196.19 12.9456 196.798 13.3134C197.83 13.9439 197.648 14.6269 193.031 24.5575L188.111 35.0661L192.545 36.6424L196.919 38.2186L200.442 30.6525C203.054 24.8728 204.148 23.0863 204.998 23.0863C206.638 23.0863 209.129 25.0304 210.526 27.3948C212.712 31.0728 212.652 35.0135 210.404 41.9492C210.222 42.4221 211.619 43.1577 214.352 44.156C216.661 44.9967 218.665 45.5746 218.787 45.5221C218.908 45.417 222.006 38.9542 225.651 31.1779L232.272 17.0439L229.295 15.888C223.464 13.6286 223.586 13.5761 221.642 17.8321C219.759 21.9829 218.483 22.5084 217.572 19.4609C216.114 14.5219 209.736 9.32013 201.171 6.06248L197.769 4.74892L196.069 8.47945Z" fill="white"/>
<path d="M73.7307 14.049C66.1985 16.5711 60.0026 18.8304 59.9419 19.1457C59.7596 19.9338 62.4324 26.2389 62.9183 26.2389C63.1613 26.2389 65.8948 25.3982 68.9319 24.3474C72.0299 23.3491 74.7633 22.666 75.0063 22.9287C75.31 23.1389 75.7352 28.3406 76.039 34.4881C76.2819 40.5831 76.7071 45.7323 76.8894 45.9425C77.1323 46.1001 79.1976 45.6272 81.6274 44.8391L85.9402 43.4729V41.2136V39.0068L92.6827 36.7475L99.4253 34.4881L101.248 36.0644L103.07 37.6407L107.322 36.2746C109.63 35.4864 111.574 34.6983 111.635 34.5407C111.756 34.2254 88.7344 10.2134 87.884 9.7405C87.641 9.63541 81.2629 11.5795 73.7307 14.049ZM90.7997 25.1881C92.9865 27.5 94.748 29.6017 94.748 29.9695C94.748 30.6 88.1877 33.0695 86.5476 33.0695C85.6365 33.0695 85.4542 32.2288 85.0898 27.5525C84.4216 19.4084 85.0898 19.1457 90.7997 25.1881Z" fill="white"/>
<path d="M39.1068 31.7558C29.8737 38.166 28.0514 40.7932 28.1122 47.5186C28.1729 53.2458 31.6353 58.1323 37.5882 60.8119C40.2002 62.0204 41.4758 62.2306 45.8493 62.2306C50.0406 62.2306 51.4985 62.0204 53.6245 61.0747C55.5683 60.1289 64.6191 54.3492 68.446 51.5119C68.8105 51.2492 59.8204 40.7932 57.6944 38.9542C57.5729 38.8491 55.8113 39.8474 53.8068 41.2135L50.1014 43.7355L51.3163 45.1017C51.9844 45.8373 53.0171 47.0457 53.6853 47.7813C55.4468 49.6729 55.2646 50.1458 52.1667 52.1949C48.6435 54.5594 46.2745 54.9272 42.9336 53.8238C39.775 52.7204 37.8919 50.5136 37.5274 47.5712C37.0415 44.2084 38.3779 42.6321 45.5456 37.7982C49.0687 35.3813 51.9237 33.227 51.9237 32.9643C51.9237 32.4389 46.9427 26.8168 46.4568 26.8168C46.2745 26.8168 42.9944 29.0236 39.1068 31.7558Z" fill="white"/>
<path d="M243.206 31.1254C235.795 33.5424 231.179 39.0068 231.118 45.417C231.118 49.3577 231.907 51.7747 234.033 54.5069C235.856 56.8713 249.341 66.3816 250.009 65.7511C250.86 64.9629 260.032 54.8747 260.457 54.2442C260.761 53.8764 259.546 52.7205 257.298 51.2493C255.294 49.9357 253.593 48.8323 253.471 48.8323C253.35 48.8323 252.196 49.9882 250.92 51.4594C249.645 52.8781 248.248 54.0866 247.883 54.0866C247.458 54.0866 246 53.351 244.603 52.4052C241.201 50.1459 239.743 46.9933 240.776 44.156C242.112 40.1102 247.093 37.5882 251.224 38.7966C252.378 39.1119 256.083 41.2661 259.485 43.578C262.887 45.8899 265.863 47.7814 266.167 47.7814C266.835 47.7289 271.573 42.2119 271.391 41.6339C271.148 40.8458 259.424 33.122 256.63 31.9135C253.289 30.4949 246.486 30.0745 243.206 31.1254Z" fill="white"/>
<path d="M133.988 42.5797C82.2955 47.6238 41.172 80.9884 32.4249 124.967C23.7993 168.577 49.5547 212.188 95.3554 231.418C114.915 239.668 137.269 243.083 158.104 241.086C198.255 237.251 232.515 216.391 249.948 185.181C265.195 157.911 265.195 125.86 249.948 98.4852C233.79 69.4816 202.447 49.095 165.514 43.5255C157.375 42.317 141.581 41.8441 133.988 42.5797ZM167.64 55.4527C169.341 56.1357 171.285 57.4493 172.014 58.3951C173.836 60.707 174.808 64.8053 174.262 67.9579L173.897 70.5324L175.659 69.429C178.817 67.485 186.35 65.646 192.606 65.2782L198.438 64.9629L200.26 66.4866C201.232 67.3273 202.629 68.5884 203.358 69.324C204.087 70.007 206.334 71.8986 208.278 73.5274C218.301 81.619 217.936 81.1461 226.319 95.9631C237.617 115.824 242.963 127.384 246.304 138.943C248.247 145.774 247.883 152.867 245.271 157.701C239.318 168.682 225.408 171.835 213.38 164.952C210.283 163.165 205.909 159.697 203.904 157.386L202.568 155.914L201.353 157.123C199.349 159.172 191.877 168.735 190.723 170.731C190.176 171.73 188.172 173.937 186.289 175.618C183.191 178.298 182.887 178.823 183.009 180.609C183.373 184.34 185.56 196.267 187.747 206.093L189.933 215.971L188.597 217.232C186.714 218.966 178.878 222.381 173.715 223.8C160.473 227.267 142.736 227.215 125.727 223.484C117.527 221.698 117.223 221.383 118.074 215.918C118.438 213.501 118.742 206.25 118.742 199.788V187.965L116.069 185.706C112.789 182.974 110.724 179.559 108.841 173.831L107.383 169.523L106.654 174.252C105.074 184.918 99.5468 193.377 91.7108 196.898C89.0381 198.159 88.0055 198.316 82.903 198.316C78.0435 198.316 76.6464 198.106 74.0951 197.003C69.6608 195.164 64.0117 190.067 61.8249 185.969C59.5166 181.608 59.0307 180.662 58.8485 179.664C58.7877 179.243 58.1803 176.248 57.4514 173.096C55.3861 163.848 54.4142 154.286 53.6852 136.736C52.9563 118.662 53.26 115.089 55.9328 109.572C57.5121 106.262 58.241 104.475 60.4885 97.8021C61.5212 94.6496 62.1286 93.7563 63.5865 92.9682C66.8059 91.2868 76.3427 88.8173 81.2022 88.4495C85.5757 88.1343 85.9402 88.1868 87.3373 89.3953L88.7951 90.7089L89.2203 87.241C89.6455 82.9325 92.136 78.4664 94.991 76.785C96.5703 75.8918 97.9067 75.6291 100.883 75.6291C104.224 75.6291 104.771 75.4715 104.771 74.6833C104.771 73.107 108.112 69.0612 110.42 67.8002C113.822 66.0138 118.499 65.3833 121.779 66.3816C123.601 66.907 124.573 67.0121 124.755 66.6443C125.363 65.1205 128.886 62.3883 131.984 61.0748C136.175 59.2883 142.128 59.0781 145.287 60.5493L147.231 61.4426L148.506 59.6035C151.24 55.7679 157.071 53.351 162.174 53.9289C163.51 54.0866 166 54.7696 167.64 55.4527Z" fill="white"/>
<path d="M156.828 56.3983C153.001 57.6068 150.936 59.4458 149.357 62.9137L148.324 65.173L147.048 64.1221C146.32 63.5442 144.74 62.7035 143.525 62.2306C137.572 60.1289 129.554 62.8086 126.699 67.9052L125.424 70.2171L122.387 68.9035C119.957 67.8527 118.863 67.695 116.677 67.9577C111.756 68.5883 107.565 72.1086 106.836 76.2595C106.411 78.4663 106.35 78.4663 102.645 77.6782C100.397 77.2053 99.6684 77.2578 97.3601 78.151C93.4118 79.6222 91.7109 82.7748 91.7109 88.502C91.7109 90.8138 91.8324 93.2834 92.0147 94.019C92.3791 95.7003 90.739 95.8054 89.8886 94.124C89.5849 93.4935 88.7952 92.9681 88.1878 92.9681C87.5804 92.9681 86.8514 92.3901 86.487 91.602C85.9403 90.1833 85.8795 90.1833 81.4452 90.4986C76.525 90.8664 68.5068 92.863 65.3482 94.5444C63.8296 95.3851 63.4044 95.9105 63.6473 96.6986C63.8296 97.3817 63.5259 98.1698 62.7969 98.8003C62.1895 99.3258 61.6428 100.377 61.6428 101.112C61.6428 102.268 60.9139 104.16 57.1478 112.409C55.9329 115.141 55.8721 116.087 55.9936 129.485C56.1759 145.668 56.9048 156.282 58.6056 166.58C60.9139 180.347 63.7081 186.809 69.2965 191.591C73.7308 195.321 77.9221 196.635 84.1787 196.372C89.6456 196.109 92.9866 194.638 96.5704 191.118C99.2432 188.491 102.523 182.659 103.495 178.875C104.042 176.669 105.925 162.955 105.986 160.643C106.046 159.067 107.322 162.062 109.934 169.996C113.093 179.453 114.551 181.923 118.499 184.76L121.293 186.757L120.929 201.732C120.807 209.981 120.443 217.442 120.26 218.388C119.835 220.016 119.896 220.016 123.419 220.91C132.652 223.274 139.334 223.957 151.847 223.957C163.024 224.01 164.482 223.905 169.827 222.644C175.537 221.277 183.191 218.44 186.046 216.549L187.443 215.603L185.317 205.935C182.766 193.903 181.429 186.915 180.822 181.66L180.336 177.562L183.555 175.197C185.317 173.884 187.504 171.677 188.354 170.311C192.06 164.636 201.657 152.867 202.629 152.867C202.811 152.867 203.783 153.813 204.694 154.969C207.367 158.279 213.502 162.955 217.45 164.689C220.062 165.845 222.128 166.318 225.104 166.423C231.118 166.738 234.823 165.53 239.136 161.799C242.052 159.277 242.781 158.226 243.935 155.021C247.519 144.775 243.024 130.904 226.562 100.902C222.735 93.8088 218.726 86.8206 217.693 85.4019C215.689 82.5646 201.05 69.8493 199.774 69.8493C199.349 69.8493 198.924 69.3239 198.802 68.6408C198.62 67.59 198.255 67.4849 194.915 67.3272C190.359 67.1171 183.555 68.3255 179.121 70.0595C176.084 71.2679 175.841 71.4781 175.841 73.1595C175.841 74.3154 175.477 75.1036 174.93 75.3137C174.444 75.4714 174.019 76.1544 174.019 76.89C174.019 78.3612 173.836 78.5188 171.224 78.9917L169.341 79.3595L170.496 75.2612C172.196 69.4289 172.257 62.8086 170.617 60.3916C168.248 56.8712 161.505 54.9272 156.828 56.3983ZM165.94 58.6577C170.617 60.5492 171.164 65.2255 168.005 77.7307C164.968 89.8155 164.421 91.3918 162.477 93.0206C160.108 95.0698 156.099 95.1749 153.427 93.1783C150.207 90.8664 149.539 87.6613 149.843 75.6815C150.025 66.6442 150.207 65.1204 151.301 63.0187C154.216 57.6594 159.622 56.0305 165.94 58.6577ZM142.979 63.8069C143.951 64.2272 145.408 65.2781 146.32 66.1713C147.899 67.8527 147.899 67.8527 147.899 77.6256C147.96 84.824 148.203 88.0291 148.81 89.5528C150.632 93.8088 149.417 97.8546 145.773 99.7987C141.885 101.9 136.479 100.639 133.928 97.0664C131.741 93.9664 126.882 73.6849 127.55 70.5323C128.643 65.4357 137.755 61.4424 142.979 63.8069ZM197.587 69.0086C197.769 69.6917 197.526 69.9018 196.737 69.7442C196.069 69.6391 195.522 69.1662 195.4 68.5883C195.218 67.9052 195.461 67.695 196.251 67.8527C196.919 67.9577 197.466 68.4306 197.587 69.0086ZM192.424 69.2713C192.91 70.9001 189.63 71.6357 188.962 70.0595C188.415 68.9035 189.022 68.273 190.662 68.273C191.574 68.273 192.242 68.6408 192.424 69.2713ZM186.714 71.4781C185.56 72.1086 183.738 72.0561 183.677 71.4256C183.373 69.9018 183.555 69.5866 184.953 69.3239C186.775 68.9035 188.233 70.6374 186.714 71.4781ZM123.419 71.5307C125.241 73.1069 125.545 73.9476 126.699 79.0443C127.368 82.2494 128.643 87.346 129.494 90.4986C130.891 95.4901 131.012 96.3834 130.344 98.3275C128.279 104.16 122.508 105.105 117.345 100.482C115.34 98.6427 108.415 81.3036 108.415 78.0985C108.415 74.1578 110.602 71.4256 114.915 70.0595C118.195 69.0086 121.05 69.4815 123.419 71.5307ZM179.06 72.4764C179.243 73.0544 179.303 73.5273 179.182 73.5273C179.06 73.5273 178.574 73.6849 178.028 73.8425C177.36 74.0527 177.056 73.8425 177.056 73.1595C177.056 71.2679 178.514 70.7951 179.06 72.4764ZM202.022 73.5273C203.115 74.6832 205.909 76.9951 208.339 78.6765C210.708 80.4104 213.684 83.1426 214.96 84.7714C217.815 88.502 230.814 111.936 234.702 120.5C237.617 126.858 241.566 136.946 242.355 140.099C243.267 143.987 237.253 150.135 228.931 153.655C218.483 158.121 209.068 157.701 205.18 152.604C203.905 150.923 203.905 150.87 204.998 149.977C206.091 149.136 206.152 149.189 207.063 150.66C208.46 152.972 218.119 156.072 219.212 154.496C219.455 154.233 217.754 151.658 215.567 148.874C211.741 144.145 211.498 143.619 211.619 141.255C211.741 138.312 211.376 137.629 205.605 129.958L201.353 124.231L205.727 122.339C210.829 120.08 214.474 117.506 216.175 114.984L217.39 113.197L214.96 114.826C210.465 117.926 201.353 120.973 199.531 120.028C198.195 119.345 198.984 118.294 201.232 117.926C206.942 117.033 214.17 112.724 216.721 108.626L217.815 106.892L216.479 108.468C214.11 111.148 211.072 113.46 208.096 114.721C205.241 115.982 199.167 117.348 198.377 116.928C198.134 116.77 197.162 114.984 196.19 112.882C195.097 110.465 193.578 108.311 191.877 106.734L189.265 104.37L190.723 102.846C192.728 100.797 192.728 98.2749 190.662 96.1732C185.864 91.2342 177.42 96.0156 180.397 102.058C180.822 102.899 180.579 103.004 178.817 102.846C176.934 102.688 176.752 102.531 176.266 100.377C175.598 97.5919 176.509 92.6528 178.271 89.5528C181.49 83.8257 188.293 79.6748 195.886 78.8341C199.592 78.4138 199.653 78.3612 197.041 78.3087C193.153 78.2561 186.775 80.0426 183.616 82.0918C177.663 86.0325 174.505 91.6545 174.565 98.4325V102.583L170.496 102.216C168.248 102.005 166.243 101.69 166.001 101.48C165.758 101.27 165.211 99.5885 164.725 97.6969C163.874 94.5444 163.874 94.2817 164.968 93.0732C165.575 92.3376 166.122 91.4444 166.122 91.0766C166.122 90.1833 166.851 90.1308 167.823 90.9715C168.916 91.9172 171.589 90.6562 171.589 89.185C171.589 87.1358 170.313 83.8257 169.341 83.1426C167.884 82.1968 168.795 81.0409 171.285 80.6731C173.654 80.2527 176.752 78.0985 176.145 77.2053C175.112 75.7866 190.845 71.7408 198.438 71.4781C199.653 71.4256 200.564 71.951 202.022 73.5273ZM105.378 80.0951C106.654 80.6731 107.444 82.2494 110.42 89.9732C113.639 98.4325 113.882 99.3783 113.275 101.322C112.485 103.95 109.63 106.104 106.958 106.104C102.827 106.104 98.0283 102.163 94.9304 96.3834C93.0473 92.8105 92.9258 85.8223 94.7481 82.7223C96.8134 79.1494 100.883 78.151 105.378 80.0951ZM169.767 86.1901C170.617 88.7647 170.374 90.0257 169.098 90.2359C167.701 90.446 167.215 89.0274 167.701 86.2952C168.187 83.4579 168.916 83.4053 169.767 86.1901ZM85.5151 92.1274C85.9403 93.0732 85.4543 93.4935 83.9965 93.4935C83.3283 93.4935 82.9031 93.1257 82.9031 92.4427C82.9031 91.2342 85.0291 90.9715 85.5151 92.1274ZM78.5295 93.0732C78.4081 94.019 77.9221 94.2817 76.525 94.2817C74.4597 94.2817 73.6093 92.7054 75.4316 92.285C78.0436 91.7071 78.7118 91.9172 78.5295 93.0732ZM73.1841 94.3342C73.1841 94.7545 72.4552 95.3325 71.6048 95.5952C69.5395 96.2783 69.5395 96.2783 69.5395 95.0698C69.5395 94.4393 70.0862 93.8088 70.9366 93.5461C72.5159 93.0206 73.1841 93.2308 73.1841 94.3342ZM91.7109 97.1715C93.6547 97.1715 93.7155 98.0122 91.7109 98.4325C90.0709 98.8003 87.8841 98.0647 86.7907 96.7512C86.1833 96.0156 85.5758 96.0156 81.3238 96.7512C75.8568 97.6969 65.6519 100.272 66.0771 100.639C66.1986 100.797 70.4506 100.166 75.4924 99.3258C84.2395 97.8546 84.7862 97.802 87.1552 98.5902C89.099 99.2732 90.0709 99.3258 91.7109 98.8529C93.7155 98.3275 93.8977 98.4325 94.6874 99.6936C97.2994 104.107 101.673 107.05 106.229 107.628L108.658 107.943L109.995 112.567C111.453 117.558 112.485 118.977 115.522 120.08C117.345 120.763 118.499 120.606 130.101 118.189C137.026 116.717 145.105 115.036 148.02 114.458L153.305 113.355L155.917 115.194C157.375 116.192 159.136 117.243 159.865 117.611C161.141 118.189 161.141 118.189 160.048 120.133C159.44 121.236 158.833 123.443 158.59 125.019L158.225 127.909L159.319 124.756C160.777 120.553 162.174 118.767 163.692 119.082C164.36 119.239 164.907 119.397 164.907 119.45C164.907 119.45 164.239 120.658 163.389 122.077C160.716 126.648 161.627 131.797 165.818 135.37L168.37 137.629L166.304 138.68C165.15 139.258 164.117 139.731 163.996 139.731C163.874 139.731 163.024 138.838 162.174 137.787C160.291 135.37 160.169 136.001 161.991 138.575L163.267 140.414L161.809 141.412C160.716 142.148 159.744 142.306 158.104 142.096C155.31 141.78 141.46 144.513 140.427 145.616C139.82 146.246 135.203 147.613 133.624 147.613C133.442 147.613 133.442 146.246 133.624 144.565C133.867 141.938 133.806 141.833 133.381 143.672C131.377 151.448 125.484 155.757 116.92 155.704C111.574 155.704 108.962 154.811 105.378 151.816C103.131 149.924 102.584 149.609 103.191 150.66C103.677 151.448 104.589 152.552 105.318 153.077C106.532 154.023 106.532 154.18 105.682 155.336C105.014 156.177 104.285 159.908 103.495 166.108C102.827 171.309 101.916 176.248 101.43 177.036C100.337 178.875 96.6312 181.713 94.0799 182.606C85.5151 185.706 70.8151 184.813 65.4089 180.872C62.9792 179.086 62.1287 176.616 60.4279 166.528C58.6664 156.019 57.9374 145.931 57.8159 129.748L57.6945 115.299L60.0635 110.307C61.3998 107.575 62.7969 104.16 63.1614 102.688C63.7688 100.429 64.1333 99.9563 66.0771 99.1681C69.661 97.6444 78.5903 95.5952 83.2068 95.1749C87.1552 94.8071 87.5804 94.8596 88.7952 95.963C89.5242 96.6461 90.8605 97.1715 91.7109 97.1715ZM65.9556 97.3291C65.5304 97.6969 65.2267 97.5919 64.923 96.9613C64.68 96.3834 64.8622 95.8579 65.3482 95.5427C66.3808 94.9647 66.9275 96.4885 65.9556 97.3291ZM189.448 96.4359C191.574 98.2749 191.574 100.955 189.508 102.741C188.233 103.844 187.625 104.002 185.742 103.739C183.009 103.319 180.7 101.322 180.7 99.4834C180.7 98.6953 181.429 97.4868 182.462 96.5935C184.77 94.6495 187.261 94.5969 189.448 96.4359ZM154.581 100.797C154.581 101.112 154.338 101.48 153.973 101.638C152.88 102.216 153.305 104.317 154.763 105.421C158.772 108.626 162.66 108.258 165.697 104.37C166.365 103.529 167.033 103.529 174.626 104.107C179.121 104.422 182.948 104.79 183.069 104.843C183.191 104.948 182.28 105.736 181.065 106.682C179.85 107.575 178.514 108.836 178.21 109.467C177.846 110.044 178.392 109.677 179.425 108.626C181.855 106.156 185.378 105.105 187.868 106.051L189.508 106.734L187.261 107.733C186.046 108.258 184.892 108.941 184.649 109.204C184.467 109.519 185.074 109.414 185.985 108.994C186.896 108.573 188.536 108.205 189.569 108.205C191.27 108.205 191.634 108.521 193.092 110.938C193.943 112.461 195.765 116.297 197.162 119.397C198.802 123.075 201.11 126.963 203.783 130.536C211.376 140.467 211.437 140.624 206.091 146.299C199.167 153.602 191.27 162.745 189.144 166.002C185.317 171.94 183.434 173.674 179.06 175.565C175.234 177.194 174.565 177.299 169.159 177.247C162.234 177.194 157.861 175.933 154.398 172.991C148.446 168.052 147.838 161.694 152.455 153.55C156.707 146.036 165.454 139.784 176.145 136.579C177.785 136.053 179.121 135.423 179.06 135.212C179 134.95 178.089 133.006 177.056 130.851C176.084 128.75 174.505 124.756 173.654 121.972C172.196 117.19 170.435 113.355 171.285 116.822L171.65 118.346L168.43 118.031C159.805 117.138 150.329 109.782 150.329 103.95C150.329 103.004 150.754 101.795 151.361 101.27C152.394 100.272 154.581 99.9563 154.581 100.797ZM160.959 101.953C165.272 103.161 165.758 103.897 163.328 105.526C161.08 107.05 158.165 106.944 155.856 105.263C153.852 103.844 153.487 102.531 154.702 101.48C155.674 100.639 156.464 100.692 160.959 101.953ZM151.786 111.095C151.969 111.516 151.969 111.883 151.847 111.883C151.665 111.883 147.899 112.672 143.465 113.67C131.62 116.35 117.709 118.767 116.494 118.346C115.097 117.926 112.668 116.034 112.668 115.404C112.668 115.089 113.336 115.404 114.125 116.034C114.976 116.717 116.251 117.243 117.041 117.295C117.831 117.295 122.569 116.35 127.55 115.141C137.39 112.829 148.81 110.412 150.389 110.36C150.936 110.307 151.543 110.675 151.786 111.095ZM169.038 120.29C169.827 120.29 169.767 120.5 168.734 121.446C166.729 123.338 166.122 124.756 166.122 127.436C166.122 130.641 168.005 133.268 171.224 134.529C173.168 135.265 173.472 135.528 172.622 135.843C171.953 136.053 170.617 135.633 168.977 134.792L166.426 133.373L168.491 134.95C169.645 135.843 170.435 136.684 170.253 136.894C169.645 137.419 165.089 133.531 163.996 131.482C162.599 128.907 162.963 124.284 164.846 121.656C165.758 120.395 166.608 119.817 167.155 119.975C167.641 120.133 168.491 120.29 169.038 120.29ZM171.589 121.709C171.589 121.919 171.103 122.55 170.435 123.128C169.827 123.758 169.098 124.809 168.855 125.545C168.491 126.701 168.612 126.648 169.645 125.229C171.528 122.655 171.893 122.76 173.108 125.965C173.654 127.594 174.322 129.275 174.444 129.59C174.869 130.589 173.411 130.431 172.075 129.38C171.042 128.592 170.981 128.592 171.285 129.328C171.528 129.801 172.5 130.484 173.533 130.851C175.173 131.429 176.934 133.741 176.205 134.372C175.355 135.107 171.164 133.689 169.402 132.112C166.304 129.275 166.243 125.334 169.281 122.55C170.556 121.341 171.589 120.973 171.589 121.709ZM242.659 153.392C241.323 158.069 237.071 162.377 232.029 164.216C229.113 165.267 223.829 165.162 220.123 163.953C217.025 162.902 210.465 159.014 210.465 158.174C210.465 157.911 211.558 157.963 212.834 158.226C215.689 158.857 223.221 157.701 227.838 155.914C234.033 153.602 241.323 148.558 242.477 145.826C243.267 143.987 243.388 150.765 242.659 153.392ZM154.034 148.085C153.001 149.189 151.301 151.658 150.329 153.55C145.287 162.797 147.413 171.467 155.674 176.038L158.468 177.562H153.001C146.988 177.562 144.133 178.403 139.881 181.292C134.049 185.338 125.727 186.599 120.868 184.235C116.92 182.291 115.279 179.611 111.331 168.525C106.775 155.809 106.836 156.019 107.869 156.019C108.962 156.019 112.303 162.902 114.186 169.05C115.644 173.779 116.616 175.986 117.284 175.986C117.406 175.986 117.284 175.565 116.98 175.04C116.677 174.514 115.401 170.784 114.247 166.738C113.093 162.745 111.939 158.962 111.756 158.384C111.392 157.385 111.696 157.333 116.737 157.333C123.298 157.333 126.456 156.124 131.498 151.816C134.839 148.979 134.9 148.979 142.128 147.507C146.137 146.719 149.782 146.036 150.268 146.036C150.754 146.036 149.721 147.245 148.02 148.768C146.32 150.24 144.254 152.552 143.404 153.918C141.582 156.86 140.002 161.852 140.063 164.426C140.124 165.95 140.245 165.74 140.67 163.375C141.825 157.385 146.137 151.396 151.847 147.875C153.852 146.614 155.613 145.668 155.735 145.774C155.856 145.879 155.067 146.929 154.034 148.085ZM178.878 180.557C178.878 183.814 183.92 209.771 185.317 213.921C186.046 216.023 173.897 220.594 163.874 222.013C153.487 223.484 138.058 222.538 124.634 219.596C122.022 219.018 121.718 218.808 122.083 217.81C122.326 217.179 122.69 210.033 122.812 201.837L123.115 187.02H126.578C131.255 187.02 135.629 185.811 139.213 183.604C140.792 182.553 143.586 181.135 145.348 180.399L148.628 179.033L160.837 179.348C167.701 179.559 174.019 179.453 175.234 179.191C178.757 178.403 178.878 178.455 178.878 180.557ZM98.575 185.548C94.4444 192.379 89.1597 195.216 81.749 194.796C76.768 194.481 73.4878 193.009 69.7217 189.489C67.049 186.967 64.2548 182.816 65.2267 182.816C65.5304 182.816 66.0163 183.026 66.1986 183.342C67.049 184.55 74.7634 186.021 80.4733 186.074C87.5804 186.126 92.1361 185.286 96.6919 183.079C98.6357 182.133 100.276 181.555 100.397 181.818C100.519 182.081 99.7291 183.762 98.575 185.548Z" fill="white"/>
<path d="M154.702 81.1985C151.301 83.2477 150.632 88.0816 153.427 90.6562C155.006 92.1274 157.861 92.3376 159.926 91.0765C161.809 89.9206 161.566 89.185 159.622 90.1308C157.314 91.1291 156.221 91.0765 154.338 89.763C153.062 88.9223 152.758 88.2392 152.758 86.4002C152.758 84.5087 153.062 83.8782 154.641 82.7748C156.767 81.1985 159.136 81.0409 160.777 82.3019C161.384 82.7748 161.87 82.8799 161.87 82.5646C161.87 81.6714 159.319 80.3578 157.618 80.3578C156.767 80.3578 155.431 80.7256 154.702 81.1985Z" fill="white"/>
<path d="M137.269 86.8206C133.26 89.763 134.96 98.1699 139.699 98.6427C143.586 99.0631 146.137 97.0665 146.077 93.6512C146.016 92.2851 145.955 92.3376 145.165 94.1766C142.857 99.8512 136.479 98.4851 135.872 92.2325C135.629 89.6579 135.75 89.2376 137.208 87.9766C138.605 86.7681 139.273 86.6105 141.582 86.7681C143.89 86.9257 144.133 86.8206 143.222 86.2952C141.642 85.2443 139.03 85.5071 137.269 86.8206Z" fill="white"/>
<path d="M119.653 89.3428C117.223 89.9208 116.312 91.1293 116.312 93.6513C116.312 97.9073 119.592 101.375 123.601 101.375C126.031 101.375 128.461 99.6938 128.461 98.0124C128.461 97.3293 128.157 97.4344 127.064 98.5378C125.97 99.5887 125.12 99.9565 123.541 99.9039C119.045 99.7988 115.583 93.6513 118.62 91.2344C120.382 89.8157 123.358 89.553 125.241 90.6039C126.942 91.4971 126.942 91.4971 125.727 90.4462C124.209 89.1327 122.022 88.7649 119.653 89.3428Z" fill="white"/>
<path d="M190.966 82.4072C187.807 85.1394 188.901 89.6055 193.092 91.1293C199.47 93.4411 204.573 86.4004 199.531 82.3021C196.919 80.2529 193.396 80.3054 190.966 82.4072ZM199.167 83.5631C200.017 84.4563 200.746 85.5072 200.746 85.9275C200.746 87.3987 198.863 89.8682 197.344 90.3411C195.036 91.1293 194.307 90.9716 192.303 89.5004C190.845 88.4496 190.419 87.714 190.419 86.2428C190.419 82.0394 196.008 80.3054 199.167 83.5631Z" fill="white"/>
<path d="M198.134 88.029C196.858 89.5528 194.428 89.7104 192.606 88.3443C191.33 87.4511 191.33 87.4511 192.485 88.607C194.125 90.3409 197.344 90.2358 198.68 88.5019C200.017 86.768 199.531 86.4002 198.134 88.029Z" fill="white"/>
<path d="M207.549 89.8156C203.844 91.8122 203.48 95.9631 206.881 98.4326C209.615 100.429 212.47 100.272 215.082 98.0123C217.754 95.7004 217.876 93.1784 215.507 90.8665C213.259 88.7122 210.283 88.3444 207.549 89.8156ZM214.049 91.1817C215.507 92.2326 215.932 92.9682 215.932 94.3343C215.932 98.3275 210.526 100.219 207.185 97.3818C205.059 95.4902 205.12 93.336 207.367 91.3394C209.554 89.4478 211.619 89.3953 214.049 91.1817Z" fill="white"/>
<path d="M207.549 92.0224C206.092 93.2834 207.063 97.697 208.764 97.697C209.129 97.697 209.007 97.2767 208.461 96.7513C207.246 95.5953 207.124 92.9156 208.157 92.0224C208.582 91.6546 208.764 91.3919 208.582 91.3919C208.4 91.3919 207.975 91.6546 207.549 92.0224Z" fill="white"/>
<path d="M197.04 103.95C195.643 105.158 195.279 105.946 195.279 107.68C195.279 112.356 201.353 114.668 205.545 111.568C207.185 110.412 207.428 109.887 207.428 107.68C207.428 105.473 207.185 104.948 205.545 103.792C202.872 101.848 199.41 101.9 197.04 103.95ZM203.905 104.002C207.671 105.578 207.185 110.622 203.176 111.778C201.05 112.461 199.774 112.199 197.891 110.675C195.097 108.521 196.676 104.055 200.442 103.372C201.9 103.109 201.839 103.056 203.905 104.002Z" fill="white"/>
<path d="M199.713 104.528C198.985 104.79 198.134 105.473 197.77 106.051C196.676 107.733 196.98 107.943 198.377 106.419C199.713 105 202.811 104.528 204.269 105.578C204.755 105.894 204.694 105.841 204.269 105.368C203.176 104.37 201.293 104.002 199.713 104.528Z" fill="white"/>
<path d="M101.916 93.7037C96.8135 95.6478 100.64 103.477 106.715 103.477C109.448 103.477 110.238 102.689 110.177 100.061C110.116 98.1173 110.056 98.0648 109.691 99.536C108.962 102.636 104.406 102.899 101.734 99.9563C99.061 97.0139 101.005 93.7037 105.135 94.1241C107.079 94.3342 107.201 94.2817 106.229 93.6512C104.892 92.8105 104.346 92.8105 101.916 93.7037Z" fill="white"/>
<path d="M73.002 103.161C71.7263 103.582 70.4507 104.107 70.2685 104.317C70.0255 104.528 70.39 104.528 71.0582 104.317C71.7263 104.107 73.6094 103.687 75.2495 103.372C84.5433 101.638 95.5986 106.629 99.7899 114.406C101.248 117.033 101.43 118.031 101.43 122.917C101.43 127.962 101.248 128.697 99.7292 131.219C97.1779 135.37 93.5941 138.47 89.0383 140.362C85.3937 141.938 84.4825 142.096 79.2586 142.096C73.9131 142.096 73.1234 141.938 69.5396 140.414C67.2313 139.468 66.1987 139.153 66.9883 139.731C69.904 141.833 75.0065 143.094 80.5342 143.094C85.3937 143.094 86.1833 142.936 90.3747 141.15C92.9866 140.046 95.8416 138.312 97.1172 137.104L99.304 135.002L99.3647 136.946V138.943L100.154 136.473C100.944 133.899 101.43 133.216 104.406 130.326C108.598 126.385 116.616 124.914 122.144 127.068C125.12 128.224 129.494 131.482 129.98 133.006C130.223 133.584 130.526 133.899 130.708 133.741C131.437 133.163 127.671 128.645 125.242 127.226C121.536 125.019 118.56 124.336 114.247 124.599C110.238 124.914 107.261 125.965 104.771 127.962L103.252 129.17V123.023C103.252 117.348 103.131 116.665 101.551 113.828C99.304 109.939 94.8697 106.051 90.3747 104.212C87.459 103.004 85.8796 102.741 81.0809 102.583C77.1325 102.478 74.5813 102.636 73.002 103.161Z" fill="white"/>
<path d="M73.4876 105.894C72.3335 108.311 72.3335 108.311 73.6699 108.048C74.2165 107.89 75.4314 107.628 76.4033 107.47C78.5294 107.05 78.4686 106.472 76.2211 105.053L74.4595 103.95L73.4876 105.894ZM76.1603 106.682C74.7025 107.47 73.9128 107.207 74.2165 106.104C74.4595 105.263 74.7632 105.158 75.7351 105.631C76.7678 106.104 76.8285 106.314 76.1603 106.682Z" fill="white"/>
<path d="M74.6419 109.466C72.0907 110.465 70.9973 112.829 71.7262 115.982C72.2122 118.083 72.6374 118.609 74.7026 119.607C76.039 120.29 77.7398 120.816 78.4688 120.816C80.2303 120.816 83.5105 117.348 83.5105 115.404C83.5105 113.617 82.2349 110.78 80.9592 109.939C79.5014 108.888 76.7072 108.678 74.6419 109.466ZM80.0481 110.833C80.9592 111.463 81.9311 112.777 82.2349 113.827C82.7816 115.509 82.6601 115.929 80.9592 117.978L79.0762 120.238L76.8894 119.45C73.7915 118.346 73.0626 117.558 72.7588 114.878C72.4551 112.829 72.6374 112.304 73.9737 111.148C75.8568 109.519 77.9221 109.414 80.0481 110.833Z" fill="white"/>
<path d="M74.1562 111.989C73.6095 112.619 73.245 113.67 73.245 114.248C73.3057 115.299 73.3057 115.299 73.6095 114.248C74.4599 111.358 78.3475 110.307 80.109 112.514C80.6557 113.145 81.0809 113.46 81.0809 113.145C81.0809 112.094 78.8334 110.833 76.9504 110.833C75.6747 110.833 74.7636 111.201 74.1562 111.989Z" fill="white"/>
<path d="M85.8794 116.139C84.1178 116.717 81.2629 121.236 81.8703 122.602C82.0525 123.023 83.3281 124.021 84.6645 124.809C86.7905 125.965 87.5195 126.123 89.8277 125.86C95.2947 125.124 97.5422 120.238 93.8975 117.085C92.0145 115.456 89.0988 115.141 85.8794 116.139ZM93.0471 117.768C95.4161 119.66 94.8694 122.97 91.9537 124.231C89.3418 125.439 87.0335 125.177 84.7252 123.495L82.66 122.024L83.8141 119.765C84.4215 118.556 85.5149 117.348 86.1831 117.138C88.6128 116.297 91.5893 116.56 93.0471 117.768Z" fill="white"/>
<path d="M90.1925 117.821C92.0148 118.346 92.3186 118.714 92.5008 120.395C92.6223 121.867 92.3793 122.497 91.2859 123.128C90.557 123.601 90.2533 123.968 90.6177 123.968C91.5896 123.968 93.0475 122.602 93.5334 121.289C94.1409 119.66 92.0148 117.453 89.8281 117.295C88.188 117.138 88.188 117.19 90.1925 117.821Z" fill="white"/>
<path d="M96.5704 118.294C97.3601 121.341 97.6638 121.499 99.6076 119.765L101.308 118.189L99.1216 117.401C96.1452 116.35 96.0845 116.35 96.5704 118.294ZM99.0002 118.714C99.0002 119.082 98.6357 119.502 98.2712 119.607C97.7853 119.765 97.4816 119.397 97.4816 118.714C97.4816 118.031 97.7853 117.663 98.2712 117.768C98.6357 117.926 99.0002 118.346 99.0002 118.714Z" fill="white"/>
<path d="M148.931 118.556C148.202 119.134 148.445 119.765 149.417 119.765C149.903 119.765 150.329 119.397 150.329 118.977C150.329 118.136 149.6 117.926 148.931 118.556Z" fill="white"/>
<path d="M145.834 119.082C145.165 119.66 145.469 120.29 146.38 120.29C146.866 120.29 147.291 120.08 147.291 119.818C147.291 119.134 146.319 118.662 145.834 119.082Z" fill="white"/>
<path d="M68.0209 120.028C66.6845 120.448 65.5304 120.816 65.5304 120.816C65.4696 120.816 64.9837 121.656 64.3762 122.655C62.4932 126.228 65.1052 129.748 69.661 129.748C73.3056 129.748 74.8242 128.96 76.4642 126.175C77.8006 123.863 77.8614 123.495 77.0717 122.497C76.039 121.236 72.4552 119.239 71.301 119.239C70.8151 119.292 69.3572 119.607 68.0209 120.028ZM74.5204 121.867L76.768 123.495L75.4923 125.86C74.399 127.751 73.7308 128.277 71.8477 128.75C65.5304 130.221 61.9465 123.706 67.7172 121.236C70.6936 119.922 71.9692 120.028 74.5204 121.867Z" fill="white"/>
<path d="M67.2315 122.182C66.3203 122.707 65.8951 123.495 65.8951 124.704C65.8951 126.858 67.4745 128.172 69.9042 128.119C71.5443 128.014 71.5443 128.014 70.1472 127.804C66.4418 127.226 65.3484 124.283 68.0819 122.444C69.965 121.183 69.236 120.921 67.2315 122.182Z" fill="white"/>
<path d="M142.128 119.765C141.885 120.08 141.946 120.606 142.31 120.921C142.675 121.236 143.039 121.236 143.343 120.816C143.586 120.5 143.525 119.975 143.161 119.66C142.796 119.345 142.432 119.345 142.128 119.765Z" fill="white"/>
<path d="M138.605 120.658C137.876 121.236 138.119 121.867 139.091 121.867C139.577 121.867 140.002 121.499 140.002 121.079C140.002 120.238 139.273 120.028 138.605 120.658Z" fill="white"/>
<path d="M134.9 121.184C134.231 121.762 134.535 122.392 135.446 122.392C135.932 122.392 136.357 122.182 136.357 121.919C136.357 121.236 135.386 120.763 134.9 121.184Z" fill="white"/>
<path d="M147.413 121.446C147.777 122.392 149.114 122.55 149.114 121.656C149.114 121.184 148.689 120.816 148.142 120.816C147.595 120.816 147.291 121.078 147.413 121.446Z" fill="white"/>
<path d="M143.768 121.972C144.133 122.918 145.469 123.075 145.469 122.182C145.469 121.709 145.044 121.341 144.497 121.341C143.951 121.341 143.647 121.604 143.768 121.972Z" fill="white"/>
<path d="M140.913 122.392C140.671 122.707 140.731 123.233 141.096 123.548C141.46 123.863 141.825 123.863 142.128 123.443C142.371 123.128 142.311 122.602 141.946 122.287C141.582 121.972 141.217 121.972 140.913 122.392Z" fill="white"/>
<path d="M137.086 123.495C137.208 123.811 137.572 124.021 137.876 124.021C138.18 124.021 138.544 123.811 138.666 123.495C138.787 123.18 138.423 122.917 137.876 122.917C137.329 122.917 136.965 123.18 137.086 123.495Z" fill="white"/>
<path d="M146.502 123.285C145.773 123.863 146.016 124.494 146.988 124.494C147.474 124.494 147.899 124.126 147.899 123.706C147.899 122.865 147.17 122.655 146.502 123.285Z" fill="white"/>
<path d="M59.942 125.177C58.1197 126.806 58.2411 127.436 60.4887 128.119C63.1006 128.907 63.0399 128.96 62.5539 126.701C62.0073 124.021 61.5213 123.758 59.942 125.177ZM61.6428 126.595C61.6428 127.699 60.7316 128.014 60.1242 127.121C59.699 126.49 60.2457 125.545 61.0961 125.545C61.3998 125.545 61.6428 126.018 61.6428 126.595Z" fill="white"/>
<path d="M143.039 124.809C143.039 125.282 143.343 125.545 143.768 125.44C144.862 125.124 145.044 123.968 144.011 123.968C143.465 123.968 143.039 124.336 143.039 124.809Z" fill="white"/>
<path d="M77.4969 126.858C75.5531 129.223 75.4924 129.328 76.2213 131.902C76.8287 133.951 77.3754 134.792 78.894 135.58C81.4453 136.946 83.6928 136.841 85.8188 135.265C87.9448 133.741 88.4308 132.007 87.5804 129.17C87.1552 127.541 86.4262 126.806 84.4217 125.807C80.8378 123.968 79.8052 124.126 77.4969 126.858ZM83.7535 126.753C87.3981 128.487 88.0663 132.112 85.3328 134.477C82.5994 136.841 77.9221 134.95 77.1324 131.167C76.768 129.59 77.011 128.96 78.3473 127.436C80.2911 125.229 80.5948 125.177 83.7535 126.753Z" fill="white"/>
<path d="M85.3936 131.324C85.3328 133.111 84.3002 133.951 82.2349 133.951C80.5341 133.951 78.651 132.796 78.651 131.745C78.651 131.429 78.4688 131.272 78.2866 131.429C77.6791 132.007 79.3192 134.004 80.8378 134.477C83.632 135.423 86.7907 132.953 85.758 130.694C85.5758 130.326 85.3936 130.589 85.3936 131.324Z" fill="white"/>
<path d="M139.395 125.282C139.395 125.755 139.698 126.07 140.063 125.965C140.427 125.86 140.731 125.545 140.731 125.282C140.731 125.019 140.427 124.704 140.063 124.599C139.698 124.494 139.395 124.809 139.395 125.282Z" fill="white"/>
<path d="M109.57 129.643C104.892 131.745 102.645 135.002 102.645 139.731C102.645 144.513 104.892 147.77 109.57 149.819C118.985 153.97 129.068 148.716 129.068 139.731C129.068 130.799 118.742 125.492 109.57 129.643ZM121.05 130.221C128.582 133.584 130.405 141.78 124.755 146.93C122.144 149.294 119.592 150.24 115.705 150.24C108.294 150.24 103.009 145.038 103.677 138.575C104.467 131.587 113.882 127.068 121.05 130.221Z" fill="white"/>
<path d="M110.967 132.901C104.103 136.526 105.621 145.668 113.397 147.507C117.952 148.558 122.447 146.772 124.33 143.041C125.728 140.362 125.485 137.892 123.541 135.212C121.232 131.955 114.976 130.799 110.967 132.901ZM120.078 133.741C124.816 135.843 125.424 142.043 121.172 145.143C118.56 147.035 115.523 147.35 112.485 146.089C109.266 144.775 107.808 142.674 107.808 139.521C107.808 137.629 108.173 136.789 109.691 135.265C112.546 132.48 115.948 131.955 120.078 133.741Z" fill="white"/>
<path d="M111.392 135.475C110.42 136.316 109.63 137.314 109.63 137.629C109.63 137.945 110.359 137.524 111.21 136.631C113.336 134.424 116.191 134.004 119.167 135.475L121.476 136.631L119.775 135.265C117.284 133.373 113.761 133.426 111.392 135.475Z" fill="white"/>
<path d="M118.863 141.36C117.345 142.989 115.401 143.304 113.093 142.306C111.756 141.78 111.756 141.78 112.971 142.621C114.794 143.882 118.074 143.462 119.532 141.728C121.232 139.784 120.625 139.468 118.863 141.36Z" fill="white"/>
<path d="M125.545 143.094C124.209 146.299 117.952 149.767 115.036 148.979C114.551 148.874 113.457 148.611 112.546 148.453C111.635 148.243 109.813 147.35 108.598 146.457C106.411 144.88 106.411 144.88 107.808 146.247C109.63 148.086 113.518 149.714 116.008 149.714C120.26 149.714 125.302 146.299 126.335 142.726C126.942 140.73 126.396 140.94 125.545 143.094Z" fill="white"/>
<path d="M142.979 130.746C140.731 132.743 140.61 135.055 142.736 136.841C145.834 139.574 151.544 137.682 151.544 133.951C151.544 131.85 148.689 129.223 146.38 129.223C145.408 129.223 144.072 129.853 142.979 130.746Z" fill="white"/>
<path d="M156.828 131.324C156.646 132.323 156.282 134.319 156.039 135.685C155.674 137.892 155.37 138.312 153.427 139.153C151.058 140.204 143.465 141.833 140.974 141.833C140.002 141.833 138.97 141.255 138.059 140.204C137.269 139.363 135.811 137.735 134.718 136.684L132.774 134.74L134.049 137.892C134.839 139.994 135.143 141.885 134.961 143.514C134.839 145.143 134.961 146.036 135.386 146.036C137.026 146.036 138.787 145.301 138.787 144.67C138.787 143.409 155.856 139.731 157.254 140.729C157.679 141.045 158.894 141.15 159.987 140.992C161.87 140.624 162.356 140.046 161.263 139.468C160.169 138.89 158.711 136.001 157.982 132.69C157.254 129.59 157.193 129.538 156.828 131.324Z" fill="white"/>
<path d="M83.2675 137.787L80.8378 138.418L82.9031 139.889L84.9076 141.413L85.6973 140.152C86.6084 138.838 86.7907 137.104 86.1225 137.157C85.8188 137.157 84.5431 137.472 83.2675 137.787ZM85.3328 138.838C85.3328 139.258 85.1506 139.731 84.9076 139.889C84.3609 140.362 82.8423 139.206 83.2675 138.628C83.7535 137.892 85.3328 138.05 85.3328 138.838Z" fill="white"/>
<path d="M95.0516 141.413C91.6499 143.83 85.5756 145.196 79.319 144.828C76.464 144.67 73.5483 144.408 72.8801 144.25C72.2119 144.04 73.1231 144.513 74.8847 145.301C79.076 147.087 84.6037 147.77 89.5846 147.14C91.7714 146.877 93.776 146.824 94.0797 146.982C95.1123 147.508 93.8974 163.796 91.6499 178.718C91.2855 180.925 91.407 181.24 92.3181 181.24C92.9256 181.24 94.9908 179.874 96.8739 178.193C100.336 175.198 100.336 175.145 100.761 171.309C101.004 169.155 101.733 164.479 102.341 160.906L103.434 154.391L101.673 151.921C100.701 150.555 99.3036 147.297 98.514 144.67L97.1169 139.889L95.0516 141.413Z" fill="white"/>
<path d="M187.565 96.6986C189.144 97.4868 189.934 99.641 189.144 100.955C188.78 101.533 188.658 102.111 188.78 102.268C189.448 102.794 190.541 100.166 190.177 99.0105C189.751 97.5919 188.233 96.1207 187.2 96.1207C186.775 96.1207 186.957 96.3834 187.565 96.6986Z" fill="white"/>
<path d="M204.755 135.265C205.848 137.735 205.666 141.57 204.451 143.252C203.054 145.196 199.166 147.087 196.676 147.087C195.34 147.087 195.157 147.192 195.886 147.613C198.195 148.874 202.568 147.35 204.755 144.46C206.577 142.043 206.881 137.997 205.302 135.738C204.755 134.897 204.512 134.687 204.755 135.265Z" fill="white"/>
<path d="M185.013 164.742C179.607 173.516 166.243 175.46 156.95 168.787L154.277 166.843L156.707 169.103C158.043 170.311 160.594 171.887 162.295 172.676C165.089 173.832 166.122 173.989 170.192 173.832C177.42 173.516 182.583 170.784 185.499 165.687C187.321 162.535 186.896 161.694 185.013 164.742Z" fill="white"/>
<path d="M237.86 152.131C232.272 156.177 224.618 158.962 217.147 159.645L213.866 159.96L217.693 161.747C222.674 164.006 227.352 164.479 231.178 163.008C234.155 161.852 238.042 159.12 239.075 157.491C239.622 156.597 239.379 156.65 236.645 157.859C232.576 159.645 232.393 159.54 235.188 157.175C237.01 155.599 241.991 149.609 241.262 149.767C241.201 149.767 239.683 150.818 237.86 152.131Z" fill="white"/>
<path d="M147.899 183.447C143.282 186.126 136.358 188.701 130.891 189.699C126.882 190.382 126.274 190.645 128.096 190.645C133.928 190.75 144.558 187.23 149.417 183.604C152.394 181.398 151.604 181.293 147.899 183.447Z" fill="white"/>
<path d="M92.9257 185.811C87.3372 187.545 78.7116 187.965 73.184 186.862C70.9972 186.389 69.1749 186.126 69.0534 186.231C68.6282 186.599 74.6418 189.279 77.922 190.172L81.3844 191.118L77.436 191.328L73.4877 191.486L75.9174 192.484C77.2538 193.009 80.048 193.587 82.1133 193.745C88.2484 194.165 92.7434 191.801 97.1777 185.811C98.3926 184.13 98.4533 184.13 92.9257 185.811Z" fill="white"/>
<path d="M39.2889 78.6239C26.229 94.019 18.5145 110.517 15.7811 129.223C14.5054 137.682 14.8092 152.972 16.3885 160.486C22.3414 189.279 40.0785 214.027 66.0769 230C71.0578 233.047 73.9128 234.623 71.726 233.047C45.9099 214.92 29.0839 192.116 22.5236 166.37C19.8509 155.862 19.4864 152.552 19.4864 140.257C19.4864 127.384 20.0331 123.285 23.374 112.251C26.4112 101.953 32.5463 89.6054 39.6533 79.4121C41.3542 77.0477 42.6298 75.1036 42.5083 75.1036C42.3868 75.1036 40.929 76.6799 39.2889 78.6239Z" fill="white"/>
<path d="M18.454 81.4613C9.94986 94.0716 4.7259 106.787 1.385 122.76C0.170126 128.592 -0.0121055 131.219 0.0486382 142.358C0.0486382 156.755 0.89905 162.745 4.84739 175.25C13.4123 202.257 33.6399 226.532 61.0353 242.662C70.1469 248.022 70.1469 247.759 61.0353 241.874C34.8548 224.85 14.4449 198.159 6.79119 170.731C3.63252 159.487 3.02508 154.601 3.02508 140.519C3.02508 126.123 3.63252 121.551 7.03416 109.309C9.76763 99.7462 14.9308 88.0817 19.7296 80.6732C20.823 79.0443 21.4912 77.7308 21.3089 77.7308C21.1267 77.7308 19.8511 79.4121 18.454 81.4613Z" fill="white"/>
<path d="M272.363 80.3579C280.077 92.5478 286.212 109.361 288.521 124.651C289.736 132.848 289.736 149.189 288.46 157.701C284.998 181.45 274.55 203.255 258.817 219.544C253.957 224.588 244.178 232.784 239.015 236.095C231.239 241.139 233.608 240.193 242.659 234.676C249.219 230.63 261.854 219.701 267.139 213.554C283.661 194.165 292.469 169.786 292.469 143.146C292.469 122.917 287.792 105.316 277.769 88.2393C275.157 83.7731 272.484 79.5172 271.755 78.7816C271.026 77.9409 271.209 78.5714 272.363 80.3579Z" fill="white"/>
<path d="M256.266 84.1411C258.513 87.5563 264.102 98.9056 266.228 104.528C277.161 133.216 274.792 164.479 259.667 191.118C252.864 203.15 244.907 212.766 232.758 223.695C226.197 229.579 226.076 229.684 229.903 227.215C235.248 223.695 245.635 214.972 250.131 210.139C264.709 194.533 274.185 174.777 276.736 154.391C277.647 147.455 277.101 131.587 275.825 125.282C272.788 110.78 266.957 97.6971 258.452 86.1902C255.112 81.6716 253.714 80.4105 256.266 84.1411Z" fill="white"/>
<path d="M196.373 240.719C188.719 243.924 182.523 246.761 182.523 247.024C182.523 247.234 183.373 249.125 184.467 251.175C186.289 254.747 186.471 254.905 188.111 254.59C189.873 254.275 189.934 254.38 194.064 261.893C196.373 266.097 198.559 269.512 198.863 269.512C199.41 269.512 223.707 259.319 224.193 258.846C224.74 258.425 219.941 250.544 219.273 250.807C218.969 250.912 217.572 251.437 216.236 251.91C214.231 252.646 213.988 252.698 214.656 252.015C215.264 251.332 215.082 250.702 213.745 248.39C212.834 246.866 211.862 245.447 211.498 245.237C211.133 245.08 211.862 244.554 213.077 244.081C214.292 243.661 215.325 243.03 215.325 242.715C215.325 241.874 211.133 234.834 210.587 234.834C210.344 234.834 203.965 237.513 196.373 240.719ZM211.68 239.563C212.47 240.981 213.016 242.295 212.834 242.4C212.713 242.505 209.129 244.029 204.877 245.763C200.564 247.497 197.101 249.178 197.101 249.441C197.101 249.703 197.587 250.439 198.195 251.069L199.227 252.173L204.937 249.808C208.035 248.495 210.708 247.444 210.83 247.444C211.255 247.444 212.956 250.649 212.652 251.017C212.53 251.227 209.918 252.436 206.881 253.749C203.844 255.01 201.354 256.324 201.354 256.639C201.354 256.954 201.718 257.69 202.204 258.268C203.054 259.214 203.358 259.161 210.708 255.956C214.96 254.169 218.483 252.698 218.665 252.698C219.03 252.698 222.128 258.005 221.885 258.215C221.46 258.531 199.896 267.41 199.531 267.41C199.288 267.41 197.223 263.995 194.915 259.792C190.845 252.33 190.723 252.12 189.083 252.436C187.625 252.751 187.322 252.541 186.228 250.649C185.499 249.493 184.953 248.232 185.013 247.864C185.013 247.286 208.582 236.935 209.858 236.935C210.04 236.935 210.89 238.091 211.68 239.563ZM204.998 247.969C204.512 248.232 203.844 248.495 203.48 248.495C203.176 248.495 203.297 248.232 203.783 247.969C204.269 247.707 204.998 247.444 205.302 247.444C205.666 247.444 205.484 247.707 204.998 247.969Z" fill="white"/>
<path d="M83.5713 240.403C82.4779 242.61 81.8097 244.607 82.1135 244.817C82.3564 245.027 85.2721 246.078 88.4915 247.234C91.7717 248.337 94.4444 249.388 94.4444 249.546C94.4444 249.703 91.3465 250.702 87.5196 251.805L80.6556 253.802L78.7118 257.795C77.6184 259.949 76.9502 261.946 77.254 262.156C78.4688 263.049 102.402 271.193 103.131 270.931C103.799 270.72 107.201 264.205 107.201 263.102C107.201 262.944 105.014 262.051 102.341 261.053C99.6684 260.107 97.6638 259.161 97.9068 258.951C98.2105 258.793 101.126 257.847 104.467 256.902C107.808 255.956 110.845 254.958 111.21 254.59C111.999 253.854 115.34 246.971 115.037 246.708C114.611 246.341 86.73 236.41 86.1225 236.41C85.7581 236.41 84.604 238.196 83.5713 240.403ZM99.7899 242.82C106.35 245.185 111.999 247.234 112.242 247.444C112.485 247.654 112.121 249.125 111.392 250.754L110.116 253.644L101.794 256.008C97.0564 257.322 93.5333 258.583 93.5333 259.003C93.5333 259.319 95.963 260.527 98.9395 261.578C101.977 262.681 104.467 263.785 104.589 264.047C104.71 264.363 104.224 265.676 103.556 267.042L102.28 269.512L100.337 268.776C99.2432 268.408 94.08 266.57 88.856 264.731C83.5713 262.892 79.2585 261.21 79.2585 261C79.2585 260.79 79.9267 259.319 80.7164 257.742L82.1742 254.905L90.2531 252.593C94.6874 251.332 98.3928 250.019 98.5143 249.703C98.6357 249.388 95.4771 247.969 91.468 246.603C87.3982 245.185 84.118 243.871 84.118 243.661C84.118 242.768 86.6085 238.512 87.1552 238.512C87.5196 238.512 93.1688 240.456 99.7899 242.82Z" fill="white"/>
<path d="M174.019 247.496C167.762 248.337 168.066 248.179 168.369 250.806L168.734 253.171L166.486 252.173C162.963 250.649 156.767 249.966 151.908 250.544C149.66 250.806 147.656 251.174 147.474 251.279C147.352 251.437 147.534 253.434 147.899 255.798C148.628 259.896 148.689 260.054 150.268 260.054H151.908L153.305 268.303C154.095 272.874 154.884 276.763 155.127 276.973C155.553 277.393 164.603 276.237 165.272 275.712C165.515 275.502 165.211 272.717 164.603 269.512C163.996 266.307 163.692 263.574 163.874 263.417C164.421 262.944 167.762 264.678 169.098 266.096C170.313 267.515 171.832 270.668 172.5 273.347L172.865 274.871L176.509 274.503C182.158 273.925 183.434 273.505 183.312 272.349C182.462 266.885 178.878 247.864 178.574 247.444C178.392 247.181 178.028 246.971 177.785 246.971C177.542 247.023 175.841 247.234 174.019 247.496ZM179.364 260.369C180.457 266.622 181.186 271.929 180.883 272.139C180.64 272.349 179.06 272.664 177.36 272.874L174.322 273.19L173.229 270.037C171.953 266.149 168.795 262.944 165.515 262.103C161.505 261.052 161.262 261.368 162.234 266.727C162.72 269.249 163.206 272.086 163.388 273.032L163.753 274.661L160.351 275.029C158.468 275.239 156.828 275.344 156.707 275.186C156.585 275.081 155.856 271.929 155.188 268.198C153.366 258.162 153.487 258.478 151.786 258.478C150.268 258.478 149.903 257.795 149.6 254.274C149.417 252.488 149.417 252.488 152.455 252.068C157.922 251.332 166.426 253.013 168.855 255.325C170.738 257.112 171.164 256.586 170.678 253.013C170.253 249.23 170.253 249.283 175.234 249.073L177.36 249.02L179.364 260.369Z" fill="white"/>
<path d="M124.816 250.124C121.414 251.437 118.438 253.854 116.737 256.639C114.915 259.634 114.915 265.308 116.737 268.251C118.317 270.878 121.172 273.453 123.783 274.556C126.395 275.764 132.105 276.08 135.446 275.292C139.03 274.451 143.768 270.773 145.165 267.83C146.502 265.046 146.562 259.949 145.287 257.374C142.007 250.596 132.348 247.181 124.816 250.124ZM136.722 251.857C147.413 256.166 146.927 269.512 135.932 273.558C133.138 274.556 127.975 274.398 125.059 273.242C119.957 271.246 116.312 265.624 117.162 261.052C118.681 252.751 128.036 248.337 136.722 251.857Z" fill="white"/>
<path d="M126.699 258.268C122.083 261.63 124.573 267.936 130.526 267.936C133.624 267.936 135.568 266.832 136.783 264.415C139.334 259.108 131.802 254.537 126.699 258.268ZM133.017 258.793C134.414 259.266 135.872 261.998 135.386 263.364C134.657 265.413 133.26 266.359 130.83 266.359C126.578 266.359 124.573 262.313 127.55 259.791C129.008 258.53 131.012 258.163 133.017 258.793Z" fill="white"/>
</svg>
